<svg width="100" height="160" viewBox="0 0 100 160" fill="none" xmlns="http://www.w3.org/2000/svg">
  <path fill-rule="evenodd" clip-rule="evenodd" d="M50 160C72.0914 160 90 142.091 90 120C90 97.9086 72.0914 80 50 80C27.9086 80 10 97.9086 10 120C10 142.091 27.9086 160 50 160ZM50 142C62.1503 142 72 132.15 72 120C72 107.85 62.1503 98 50 98C37.8497 98 28 107.85 28 120C28 132.15 37.8497 142 50 142Z" fill="currentColor"/>
  <path d="M42 82H58V50C58 45.5817 54.4183 42 50 42C45.5817 42 42 45.5817 42 50V82Z" fill="currentColor"/>
  <path d="M25 45C25 49.4183 28.5817 53 33 53H67C71.4183 53 75 49.4183 75 45V15C75 10.5817 71.4183 7 67 7C62.5817 7 59 10.5817 59 15V40H41V15C41 10.5817 37.4183 7 33 7C28.5817 7 25 10.5817 25 15V45Z" fill="currentColor"/>
  <rect x="42" y="7" width="16" height="35" rx="8" fill="currentColor"/>
</svg>
