<svg width="100" height="160" viewBox="0 0 100 160" fill="none" xmlns="http://www.w3.org/2000/svg">
  <path fill-rule="evenodd" clip-rule="evenodd" d="M50 160C72.0914 160 90 142.091 90 120C90 97.9086 72.0914 80 50 80C27.9086 80 10 97.9086 10 120C10 142.091 27.9086 160 50 160ZM50 142C62.1503 142 72 132.15 72 120C72 107.85 62.1503 98 50 98C37.8497 98 28 107.85 28 120C28 132.15 37.8497 142 50 142Z" fill="currentColor"/>
  <path d="M42 82H58V50C58 45.5817 54.4183 42 50 42C45.5817 42 42 45.5817 42 50V82Z" fill="currentColor"/>
  <path d="M27 47C27 50.3137 29.6863 53 33 53H67C70.3137 53 73 50.3137 73 47V13C73 9.68629 70.3137 7 67 7C63.6863 7 61 9.68629 61 13V40H39V13C39 9.68629 36.3137 7 33 7C29.6863 7 27 9.68629 27 13V47Z" fill="currentColor"/>
  <rect x="44" y="7" width="12" height="35" rx="6" fill="currentColor"/>
</svg>
